<svg xmlns="http://www.w3.org/2000/svg" width="16" height="16" viewBox="0 0 16 16">
    <defs>
        <linearGradient id="a" x1="1.543%" y1="98.457%" y2="0%">
            <stop offset="0%" stop-color="#E53935"/>
            <stop offset="100%" stop-color="#FF5252"/>
        </linearGradient>
    </defs>
    <g fill="none" fill-rule="evenodd" transform="translate(.5 .5)">
        <circle cx="7.5" cy="7.5" r="7.5" fill="url(#a)" opacity=".243"/>
        <circle cx="7.5" cy="7.5" r="5" fill="url(#a)"/>
        <path fill="#FFF" fill-rule="nonzero" d="M8.955 6.643c.603 0 1.087-.479 1.087-1.072 0-.592-.484-1.071-1.087-1.071a1.08 1.08 0 0 0-1.091 1.071 1.08 1.08 0 0 0 1.09 1.072zm-2.91 0c.604 0 1.088-.479 1.088-1.072 0-.592-.484-1.071-1.088-1.071a1.08 1.08 0 0 0-1.09 1.071 1.08 1.08 0 0 0 1.09 1.072zm0 .714c-.847 0-2.545.418-2.545 1.25V9.5h5.09v-.893c0-.832-1.697-1.25-2.545-1.25zm2.91 0c-.106 0-.226.007-.353.018.422.3.716.704.716 1.232V9.5H11.5v-.893c0-.832-1.698-1.25-2.545-1.25z"/>
    </g>
</svg>
