<svg xmlns="http://www.w3.org/2000/svg" width="15" height="20" viewBox="0 0 15 20">
    <defs>
        <linearGradient id="a" x1="0%" y1="0%" y2="50%">
            <stop offset="0%" stop-color="#FFA726"/>
            <stop offset="100%" stop-color="#FF9100"/>
        </linearGradient>
    </defs>
    <g fill="url(#a)" fill-rule="nonzero" transform="translate(-221 -188)">
        <path d="M224.045 202.3H221.5v-7.8h2.545v7.8zm2.546-7.8h5.727c.528 0 .98.325 1.171.793l1.922 4.583c.057.149.089.305.089.474v1.3c0 .718-.57 1.3-1.273 1.3h-4.015l.604 2.97a.977.977 0 0 1-.26.89l-.675.69-4.187-4.283a1.285 1.285 0 0 1-.376-.917v-6.5c0-.721.573-1.3 1.273-1.3z" opacity=".12"/>
        <path d="M224.045 199.3H221.5v-7.8h2.545v7.8zm2.546-7.8h5.727c.528 0 .98.325 1.171.793l1.922 4.583c.057.149.089.305.089.474v1.3c0 .718-.57 1.3-1.273 1.3h-4.015l.604 2.97a.977.977 0 0 1-.26.89l-.675.69-4.187-4.283a1.285 1.285 0 0 1-.376-.917v-6.5c0-.721.573-1.3 1.273-1.3z" opacity=".403"/>
        <path d="M224.045 196.3H221.5v-7.8h2.545v7.8zm2.546-7.8h5.727c.528 0 .98.325 1.171.793l1.922 4.582c.057.15.089.306.089.475v1.3c0 .718-.57 1.3-1.273 1.3h-4.015l.604 2.97a.977.977 0 0 1-.26.89l-.675.69-4.187-4.283a1.285 1.285 0 0 1-.376-.917v-6.5c0-.721.573-1.3 1.273-1.3z" opacity=".88"/>
    </g>
</svg>
